<svg xmlns="http://www.w3.org/2000/svg" viewBox="0 0 32 32" id="Arrows">
  <path fill="#d45985" d="M4 16a7 7 0 0 1 7-7h8.36l-1.52.39-1.26 1.26a2 2 0 1 0 2.83 2.83l5-5a2 2 0 0 0 0-2.83l-5-5a2 2 0 0 0-2.83 2.83l1.17 1.17L19.3 5H11a11 11 0 0 0-8.22 18.31 2 2 0 0 0 3-2.66A7 7 0 0 1 4 16Z" class="colorba63c6 svgShape"></path>
  <path fill="#d45985" d="M29.18 8.64a2 2 0 0 0-3 2.68A7 7 0 0 1 21 23h-8l1.24-.42 1.16-1.16a2 2 0 0 0-2.83-2.83l-5 5a2 2 0 0 0 0 2.83l5 5a2 2 0 0 0 2.83-2.83l-1.22-1.22L13 27h8a11 11 0 0 0 8.18-18.36Z" class="colorba63c6 svgShape"></path>
</svg>
